<?xml version="1.0" encoding="UTF-8" standalone="no"?>
<!-- Created with Inkscape (http://www.inkscape.org/) -->

<svg
   xmlns:dc="http://purl.org/dc/elements/1.1/"
   xmlns:cc="http://creativecommons.org/ns#"
   xmlns:rdf="http://www.w3.org/1999/02/22-rdf-syntax-ns#"
   xmlns:svg="http://www.w3.org/2000/svg"
   xmlns="http://www.w3.org/2000/svg"
   xmlns:sodipodi="http://sodipodi.sourceforge.net/DTD/sodipodi-0.dtd"
   xmlns:inkscape="http://www.inkscape.org/namespaces/inkscape"
   width="744.09448819"
   height="1052.3622047"
   id="svg2"
   version="1.1"
   inkscape:version="0.48.4 r9939"
   sodipodi:docname="logo.svg"
   inkscape:export-filename="/home/vineet/workspace/javatutorials/tutorials/img/logo.png"
   inkscape:export-xdpi="119.57839"
   inkscape:export-ydpi="119.57839">
  <defs
     id="defs4" />
  <sodipodi:namedview
     id="base"
     pagecolor="#ffffff"
     bordercolor="#666666"
     borderopacity="1.0"
     inkscape:pageopacity="0.0"
     inkscape:pageshadow="2"
     inkscape:zoom="6.6357552"
     inkscape:cx="216.48345"
     inkscape:cy="552.34461"
     inkscape:document-units="px"
     inkscape:current-layer="layer1"
     showgrid="false"
     inkscape:window-width="1877"
     inkscape:window-height="1056"
     inkscape:window-x="43"
     inkscape:window-y="24"
     inkscape:window-maximized="1" />
  <metadata
     id="metadata7">
    <rdf:RDF>
      <cc:Work
         rdf:about="">
        <dc:format>image/svg+xml</dc:format>
        <dc:type
           rdf:resource="http://purl.org/dc/dcmitype/StillImage" />
        <dc:title></dc:title>
      </cc:Work>
    </rdf:RDF>
  </metadata>
  <g
     inkscape:label="Layer 1"
     inkscape:groupmode="layer"
     id="layer1">
    <g
       transform="scale(1.0611123,0.94240729)"
       style="font-size:15.41799259000000077px;font-style:normal;font-weight:normal;line-height:125%;letter-spacing:0px;word-spacing:0px;fill:#fffeee;fill-opacity:1;stroke:#887c7c;font-family:Sans;-inkscape-font-specification:Sans;stroke-opacity:1;stroke-width:0.29999999999999999;stroke-miterlimit:0.20000000000000001;stroke-dasharray:none"
       id="text2985">
      <path
         d="m 184.87377,483.0658 2.22227,1.37228 -7.44302,15.28084 c -0.96454,1.98023 -2.04243,3.18449 -3.23368,3.61278 -1.18392,0.43282 -2.60831,0.13518 -4.27317,-0.89289 l -0.84711,-0.5231 0.91095,-1.87022 0.69308,0.42798 c 0.98279,0.60689 1.80984,0.75985 2.48114,0.45887 0.67132,-0.30097 1.35349,-1.16287 2.04653,-2.5857 l 7.44301,-15.28084"
         style="font-size:25.69665336999999994px;stroke:#887c7c;stroke-opacity:1;stroke-width:0.29999999999999999;stroke-miterlimit:0.20000000000000001;stroke-dasharray:none;fill:#fffeee;fill-opacity:1"
         id="path3803"
         inkscape:connector-curvature="0" />
      <path
         d="m 194.16392,488.9614 -5.13482,8.27451 6.72788,1.66464 -1.59306,-9.93915 m -0.9211,-2.78437 2.80635,0.69434 3.40222,20.02172 -2.57351,-0.63674 -0.75064,-5.10597 -8.24749,-2.04061 -2.58266,4.28122 -2.61027,-0.64584 10.556,-16.56812"
         style="font-size:25.69665336999999994px;stroke:#887c7c;stroke-opacity:1;stroke-width:0.29999999999999999;stroke-miterlimit:0.20000000000000001;stroke-dasharray:none;fill:#fffeee;fill-opacity:1"
         id="path3805"
         inkscape:connector-curvature="0" />
      <path
         d="m 208.29168,505.72791 -7.1519,-18.73297 2.64746,0 5.93482,15.77183 5.94737,-15.77183 2.63491,0 -7.13935,18.73297 -2.87331,0"
         style="font-size:25.69665336999999994px;stroke:#887c7c;stroke-opacity:1;stroke-width:0.29999999999999999;stroke-miterlimit:0.20000000000000001;stroke-dasharray:none;fill:#fffeee;fill-opacity:1"
         id="path3807" />
      <path
         d="m 225.6319,489.49184 -3.43793,9.32256 6.88841,0 -3.45048,-9.32256 m -1.43038,-2.4969 2.87331,0 7.13935,18.73297 -2.63491,0 -1.70642,-4.80558 -8.44426,0 -1.70642,4.80558 -2.67255,0 7.1519,-18.73297"
         style="font-size:25.69665336999999994px;stroke:#887c7c;stroke-opacity:1;stroke-width:0.29999999999999999;stroke-miterlimit:0.20000000000000001;stroke-dasharray:none;fill:#fffeee;fill-opacity:1"
         id="path3809" />
    </g>
    <path
       sodipodi:type="spiral"
       style="fill:none;stroke:#c4b4b4;stroke-width:1px;stroke-linecap:butt;stroke-linejoin:miter;stroke-opacity:1"
       id="path2989"
       sodipodi:cx="208.11497"
       sodipodi:cy="482.57022"
       sodipodi:expansion="1"
       sodipodi:revolution="3"
       sodipodi:radius="15.309835"
       sodipodi:argument="-18.487329"
       sodipodi:t0="0"
       d="m 208.11497,482.57022 c 0.71781,0.27201 -0.0125,1.10178 -0.45209,1.19303 -1.19121,0.24729 -1.99002,-1.06139 -1.93397,-2.09722 0.10026,-1.85285 2.03897,-2.93779 3.74235,-2.6749 2.49978,0.38579 3.9052,3.02675 3.41584,5.38747 -0.65223,3.14648 -4.01775,4.88047 -7.0326,4.15678 -3.79388,-0.91069 -5.8597,-5.0102 -4.89772,-8.67773 1.1651,-4.44188 6.00344,-6.84121 10.32286,-5.63865 5.0903,1.41717 7.82414,6.99715 6.37959,11.96799 -1.66779,5.73902 -7.99121,8.80802 -13.61312,7.12052 -6.38797,-1.91745 -9.79257,-8.98549 -7.86145,-15.25825 2.16642,-7.03708 9.97994,-10.77761 16.90337,-8.60239 7.68632,2.4149 11.76301,10.97452 9.34333,18.5485"
       transform="matrix(0.81231915,0,0,0.27934448,89.480508,335.57793)" />
    <path
       sodipodi:type="spiral"
       style="fill:none;stroke:#c4b4b4;stroke-width:1px;stroke-linecap:butt;stroke-linejoin:miter;stroke-opacity:1"
       id="path2989-7"
       sodipodi:cx="208.11497"
       sodipodi:cy="482.57022"
       sodipodi:expansion="1"
       sodipodi:revolution="3"
       sodipodi:radius="15.309835"
       sodipodi:argument="-18.487329"
       sodipodi:t0="0"
       d="m 208.11497,482.57022 c 0.71781,0.27201 -0.0125,1.10178 -0.45209,1.19303 -1.19121,0.24729 -1.99002,-1.06139 -1.93397,-2.09722 0.10026,-1.85285 2.03897,-2.93779 3.74235,-2.6749 2.49978,0.38579 3.9052,3.02675 3.41584,5.38747 -0.65223,3.14648 -4.01775,4.88047 -7.0326,4.15678 -3.79388,-0.91069 -5.8597,-5.0102 -4.89772,-8.67773 1.1651,-4.44188 6.00344,-6.84121 10.32286,-5.63865 5.0903,1.41717 7.82414,6.99715 6.37959,11.96799 -1.66779,5.73902 -7.99121,8.80802 -13.61312,7.12052 -6.38797,-1.91745 -9.79257,-8.98549 -7.86145,-15.25825 2.16642,-7.03708 9.97994,-10.77761 16.90337,-8.60239 7.68632,2.4149 11.76301,10.97452 9.34333,18.5485"
       transform="matrix(0.71310087,0,0,0.23586578,110.08528,354.04557)" />
    <path
       sodipodi:type="spiral"
       style="fill:none;stroke:#c4b4b4;stroke-width:1px;stroke-linecap:butt;stroke-linejoin:miter;stroke-opacity:1"
       id="path2989-7-4"
       sodipodi:cx="208.11497"
       sodipodi:cy="482.57022"
       sodipodi:expansion="1"
       sodipodi:revolution="3"
       sodipodi:radius="15.309835"
       sodipodi:argument="-18.487329"
       sodipodi:t0="0"
       d="m 208.11497,482.57022 c 0.71781,0.27201 -0.0125,1.10178 -0.45209,1.19303 -1.19121,0.24729 -1.99002,-1.06139 -1.93397,-2.09722 0.10026,-1.85285 2.03897,-2.93779 3.74235,-2.6749 2.49978,0.38579 3.9052,3.02675 3.41584,5.38747 -0.65223,3.14648 -4.01775,4.88047 -7.0326,4.15678 -3.79388,-0.91069 -5.8597,-5.0102 -4.89772,-8.67773 1.1651,-4.44188 6.00344,-6.84121 10.32286,-5.63865 5.0903,1.41717 7.82414,6.99715 6.37959,11.96799 -1.66779,5.73902 -7.99121,8.80802 -13.61312,7.12052 -6.38797,-1.91745 -9.79257,-8.98549 -7.86145,-15.25825 2.16642,-7.03708 9.97994,-10.77761 16.90337,-8.60239 7.68632,2.4149 11.76301,10.97452 9.34333,18.5485"
       transform="matrix(0.54604536,0,0,0.18757558,144.00628,374.86565)" />
    <path
       style="fill:#fffef9;fill-opacity:1;stroke:#000000;stroke-width:0.3;stroke-linecap:round;stroke-miterlimit:4;stroke-opacity:1;stroke-dasharray:none;stroke-dashoffset:0"
       d="m 164.47675,455.32722 c 8.26317,2.40779 9.56629,16.35595 13.71871,23.58629 0.91634,1.59556 1.28791,3.74958 3.73667,4.39743 29.60209,0.35587 61.25886,0.0116 87.2238,0.002 0.15568,0 0.28353,-0.12969 0.28353,-0.28761 l 0,-3.89864 c 0,-0.15792 -0.12785,-0.28761 -0.28353,-0.28761 l -84.87016,0 c -2.27343,-0.39331 -2.24361,-1.95292 -2.76314,-3.61293 -5.99523,-19.15595 11.50218,-28.26499 -17.04588,-19.89893 z"
       id="rect3027"
       inkscape:connector-curvature="0"
       sodipodi:nodetypes="csccssscsc" />
    <path
       sodipodi:type="spiral"
       style="fill:none;stroke:#c4b4b4;stroke-width:1px;stroke-linecap:butt;stroke-linejoin:miter;stroke-opacity:1"
       id="path2989-7-4-0"
       sodipodi:cx="208.11497"
       sodipodi:cy="482.57022"
       sodipodi:expansion="1"
       sodipodi:revolution="3"
       sodipodi:radius="15.309835"
       sodipodi:argument="-18.487329"
       sodipodi:t0="0"
       d="m 208.11497,482.57022 c 0.71781,0.27201 -0.0125,1.10178 -0.45209,1.19303 -1.19121,0.24729 -1.99002,-1.06139 -1.93397,-2.09722 0.10026,-1.85285 2.03897,-2.93779 3.74235,-2.6749 2.49978,0.38579 3.9052,3.02675 3.41584,5.38747 -0.65223,3.14648 -4.01775,4.88047 -7.0326,4.15678 -3.79388,-0.91069 -5.8597,-5.0102 -4.89772,-8.67773 1.1651,-4.44188 6.00344,-6.84121 10.32286,-5.63865 5.0903,1.41717 7.82414,6.99715 6.37959,11.96799 -1.66779,5.73902 -7.99121,8.80802 -13.61312,7.12052 -6.38797,-1.91745 -9.79257,-8.98549 -7.86145,-15.25825 2.16642,-7.03708 9.97994,-10.77761 16.90337,-8.60239 7.68632,2.4149 11.76301,10.97452 9.34333,18.5485"
       transform="matrix(0.39643566,0,0,0.11335408,175.44012,408.4975)" />
    <rect
       style="fill:#fffeee;fill-opacity:1;stroke:#313131;stroke-width:0.21299999999999999;stroke-linecap:round;stroke-miterlimit:4;stroke-opacity:1;stroke-dasharray:none;stroke-dashoffset:0"
       id="rect3848"
       width="33.190968"
       height="2.297724"
       x="203.65074"
       y="485.18881"
       ry="0" />
  </g>
</svg>
